:SAMPLES-PER-SECOND 30
:FULLY-SPECIFIED
:DEGREES
95
root  -25.7911 40.4037 -8.36325 172.385 -86.9974 -176.362
RightUpLeg  7.21505 -8.26662 -0.849846
RightLeg  13.1175 2.2616 3.75525
RightFoot  -13.1252 -0.179138 -5.79036
RightToes  1.74622e-010 0 -3.6325e-017
Spine  5.73193 1.60585 9.92305
Spine1  8.68321 3.65771 -5.99785
HEad  -14.6704 1.02415 -3.08996
LeftShoulder1  9.45229 -12.8925 -50.3235
LeftArm  -2.83539 18.7429 -23.5778
LeftForeArm  33.7128 -8.27231 -7.28273
LeftHand  -0.244104 0.0205437 5.32207
RightShoulder  6.82528 10.7763 41.5609
RightArm  22.8217 3.13301 38.045
RightForeArm  14.0592 41.7297 9.06558
RightHand  -0.234297 -2.31865 -8.5295
LeftUpLeg  -21.5719 8.45938 1.32366
LeftLeg  15.214 1.90313 -0.0919097
LeftFoot  -0.91972 0.370472 -3.99938
LeftToes  -5.82109e-011 8.55049e-011 -1.09726e-011
96
root  -27.2867 40.2489 -8.27449 175.263 -85.2164 -179.554
RightUpLeg  10.28 -8.4301 -1.92079
RightLeg  12.5507 4.42901 3.68649
RightFoot  -14.7628 -0.255133 -5.25848
RightToes  1.74622e-010 0 -3.6325e-017
Spine  5.7429 1.84028 9.76793
Spine1  9.55124 4.24006 -7.07129
HEad  -15.6264 2.06648 -3.21815
LeftShoulder1  9.37 -12.838 -50.0535
LeftArm  -2.24574 23.1164 -23.0996
LeftForeArm  35.8655 -7.27221 -7.32655
LeftHand  -0.244104 0.0205437 5.32207
RightShoulder  6.92927 11.0127 41.5024
RightArm  26.0627 7.20501 39.3656
RightForeArm  11.7404 44.0502 10.036
RightHand  -0.172996 -2.9897 -7.82911
LeftUpLeg  -19.1528 4.86238 3.9541
LeftLeg  2.21403 7.8118 -3.53879
LeftFoot  -0.00375022 0.421372 -4.2494
LeftToes  -5.82109e-011 8.55049e-011 -1.09726e-011
97
root  -28.876 39.9343 -8.12167 173.052 -84.3502 -177.981
RightUpLeg  13.2625 -9.14084 -3.11812
RightLeg  13.463 6.56615 3.75486
RightFoot  -16.9232 -0.30806 -3.97119
RightToes  1.74622e-010 0 -3.6325e-017
Spine  5.86233 1.70115 9.79466
Spine1  10.2159 4.33441 -7.6347
HEad  -16.5584 3.04462 -3.12798
LeftShoulder1  9.2464 -12.7535 -49.6524
LeftArm  -1.78045 27.4116 -23.1204
LeftForeArm  36.5116 -7.22442 -7.30651
LeftHand  -0.244104 0.0205437 5.32207
RightShoulder  7.02651 11.2122 41.5152
RightArm  27.972 10.6531 40.8723
RightForeArm  11.7814 44.6571 10.2634
RightHand  -0.170758 -3.12408 -8.12694
LeftUpLeg  -17.7987 4.46928 4.67111
LeftLeg  -4.29631 11.6731 -5.71154
LeftFoot  -0.567896 0.451029 -4.72678
LeftToes  -5.82109e-011 8.55049e-011 -1.09726e-011
98
root  -30.5598 39.5703 -7.91259 170.114 -84.6268 -175.423
RightUpLeg  15.9648 -10.0125 -4.28696
RightLeg  14.8713 7.75952 3.69519
RightFoot  -18.5581 -0.28716 -2.55805
RightToes  1.74622e-010 0 -3.6325e-017
Spine  5.44132 1.40992 9.69926
Spine1  10.7569 4.08975 -7.71031
HEad  -16.9609 3.44682 -2.90095
LeftShoulder1  9.15265 -12.6956 -49.3247
LeftArm  -1.70878 31.1923 -23.4264
LeftForeArm  36.1572 -7.37056 -7.21179
LeftHand  -0.244104 0.0205437 5.32207
RightShoulder  7.01012 11.2279 41.3627
RightArm  28.2308 12.5383 42.2841
RightForeArm  12.9783 44.1244 9.98271
RightHand  -0.17563 -3.22112 -8.75453
LeftUpLeg  -18.2361 4.76331 4.093
LeftLeg  -2.77685 15.6132 -6.10065
LeftFoot  -1.04338 0.336653 -3.66144
LeftToes  -5.82109e-011 8.55049e-011 -1.09726e-011
99
root  -32.3778 39.2026 -7.6769 169.09 -84.9662 -174.597
RightUpLeg  18.3175 -10.3285 -5.45329
RightLeg  16.7816 8.2827 3.35413
RightFoot  -19.5912 -0.159547 -0.434274
RightToes  1.74622e-010 0 -3.6325e-017
Spine  4.45924 1.5819 9.34829
Spine1  11.1633 4.14997 -7.3961
HEad  -16.5427 3.00422 -2.50367
LeftShoulder1  9.02328 -12.5642 -49.0239
LeftArm  -2.06105 34.2341 -23.8764
LeftForeArm  35.5122 -7.44489 -7.02368
LeftHand  -0.244104 0.0205437 5.32207
RightShoulder  6.95703 11.0728 41.4974
RightArm  26.6865 12.3611 42.6388
RightForeArm  13.7458 43.2628 9.61713
RightHand  -0.168066 -3.3118 -8.70558
LeftUpLeg  -19.2379 5.46217 2.74842
LeftLeg  2.87564 18.3702 -4.35936
LeftFoot  1.85618 0.0148575 -0.380176
LeftToes  -5.82109e-011 8.55049e-011 -1.09726e-011
100
root  -34.2612 38.9137 -7.46407 176.803 -84.7074 177.279
RightUpLeg  20.0761 -9.21953 -7.13971
RightLeg  19.7782 8.35041 3.15667
RightFoot  -19.4135 0.137791 3.89945
RightToes  1.74622e-010 0 -3.6325e-017
Spine  3.61564 2.33333 7.71763
Spine1  11.2581 4.58205 -6.50596
HEad  -15.5381 2.16939 -2.03646
LeftShoulder1  8.79668 -12.2338 -48.7937
LeftArm  -2.78277 36.4001 -24.3063
LeftForeArm  34.6398 -7.56255 -6.75578
LeftHand  -0.244104 0.0205437 5.32207
RightShoulder  7.01738 10.8999 42.4221
RightArm  24.1689 10.637 41.6653
RightForeArm  13.5359 41.7915 9.12428
RightHand  -0.209096 -2.64994 -8.4686
LeftUpLeg  -20.0106 9.80268 -0.369686
LeftLeg  9.0798 15.0538 -1.47397
LeftFoot  7.16566 -0.716834 4.12071
LeftToes  -5.82109e-011 8.55049e-011 -1.09726e-011
101
root  -36.0529 38.822 -7.28201 -166.617 -84.3366 160.15
RightUpLeg  19.9021 -7.04556 -9.28318
RightLeg  25.4257 6.93415 3.3407
RightFoot  -15.5642 0.214083 9.22435
RightToes  1.74622e-010 0 -3.6325e-017
Spine  3.44642 2.97247 4.54538
Spine1  10.7403 4.74594 -5.14129
HEad  -14.4258 1.52415 -1.63679
LeftShoulder1  8.56123 -11.8286 -48.74
LeftArm  -3.74034 37.3911 -24.6451
LeftForeArm  33.3274 -7.73568 -6.45489
LeftHand  -0.244104 0.0205437 5.32207
RightShoulder  7.16 10.7686 43.7604
RightArm  21.8475 8.35827 40.4836
RightForeArm  11.559 38.3083 8.15276
RightHand  -0.376008 -0.958957 -9.68511
LeftUpLeg  -20.443 15.6649 -4.69687
LeftLeg  14.1013 8.33005 0.635137
LeftFoot  9.77478 -1.47502 7.65187
LeftToes  -5.82109e-011 8.55049e-011 -1.09726e-011
102
root  -37.6642 38.921 -7.08622 -148.933 -84.0785 142.104
RightUpLeg  16.3967 -5.70501 -11.2359
RightLeg  34.9384 4.23309 2.87626
RightFoot  -6.33681 -0.539912 11.8431
RightToes  1.74622e-010 0 -3.6325e-017
Spine  3.96747 3.0337 1.64934
Spine1  9.50154 4.45761 -4.2434
HEad  -13.5764 1.18178 -1.45763
LeftShoulder1  8.47143 -11.6436 -48.8161
LeftArm  -4.927 36.9407 -24.9825
LeftForeArm  31.8512 -8.01432 -6.10988
LeftHand  -0.244104 0.0205437 5.32207
RightShoulder  7.22767 10.6449 44.5994
RightArm  20.8362 6.26013 40.255
RightForeArm  6.49403 32.101 6.64939
RightHand  -0.672723 0.979027 -12.3595
LeftUpLeg  -19.9603 19.0674 -8.09212
LeftLeg  17.7345 4.18443 1.73308
LeftFoot  7.41691 -1.51507 8.85778
LeftToes  -5.82109e-011 8.55049e-011 -1.09726e-011
103
root  -39.0458 39.0963 -6.87273 -138.599 -83.362 131.593
RightUpLeg  10.0181 -4.24834 -12.1909
RightLeg  46.2387 1.00097 0.776336
RightFoot  4.52933 -1.42528 10.5316
RightToes  1.74622e-010 0 -3.6325e-017
Spine  5.07118 2.9402 0.256561
Spine1  8.19722 4.3013 -4.64948
HEad  -13.1724 1.12505 -1.74488
LeftShoulder1  8.52391 -11.7205 -48.8713
LeftArm  -6.40086 35.1617 -25.4943
LeftForeArm  30.5877 -8.92349 -5.68176
LeftHand  -0.244104 0.0205437 5.32207
RightShoulder  7.21098 10.5936 44.6615
RightArm  21.4198 4.83995 40.6367
RightForeArm  -0.10942 24.1976 5.66746
RightHand  -0.875521 1.83581 -14.2424
LeftUpLeg  -18.0604 19.7726 -9.37376
LeftLeg  19.4276 3.88755 1.89429
LeftFoot  3.32777 -1.09169 8.29749
LeftToes  -5.82109e-011 8.55049e-011 -1.09726e-011
104
root  -40.2693 39.3336 -6.67563 -139.685 -82.11 132.345
RightUpLeg  2.96212 -2.18904 -12.2477
RightLeg  56.1135 -1.26098 -2.43463
RightFoot  10.0186 -1.39327 7.68338
RightToes  1.74622e-010 0 -3.6325e-017
Spine  6.42453 3.08009 -0.0996066
Spine1  7.5026 4.48433 -5.65043
HEad  -13.2115 1.52037 -2.51482
LeftShoulder1  8.5777 -11.8177 -48.8685
LeftArm  -7.59689 32.414 -26.2071
LeftForeArm  29.0747 -11.0111 -5.23174
LeftHand  -0.244104 0.0205437 5.32207
RightShoulder  7.25204 10.7228 44.5006
RightArm  18.6198 4.40583 40.1635
RightForeArm  0.822018 15.9374 7.6332
RightHand  -0.747028 0.877352 -13.873
LeftUpLeg  -15.1588 20.9763 -9.44045
LeftLeg  19.1428 3.98034 1.35458
LeftFoot  0.995447 -0.832492 7.64791
LeftToes  -5.82109e-011 8.55049e-011 -1.09726e-011
105
root  -41.4795 39.7453 -6.49573 -145.017 -81.5199 137.168
RightUpLeg  -3.00899 -0.99564 -11.4254
RightLeg  62.1974 -2.44689 -5.53212
RightFoot  9.41167 -0.931453 5.41857
RightToes  1.74622e-010 0 -3.6325e-017
Spine  7.36354 2.91741 0.207066
Spine1  7.3932 4.361 -5.74793
HEad  -13.4991 2.32793 -3.28048
LeftShoulder1  8.60059 -11.8506 -48.8944
LeftArm  -7.43293 28.9501 -26.8562
LeftForeArm  26.6181 -14.0953 -4.79971
LeftHand  -0.244104 0.0205437 5.32207
RightShoulder  7.36398 10.9417 44.5032
RightArm  11.5797 4.39961 38.3985
RightForeArm  11.7756 8.79811 10.5029
RightHand  -0.505055 -0.700569 -12.5142
LeftUpLeg  -10.8929 19.0755 -7.63655
LeftLeg  16.9132 6.93525 0.0276373
LeftFoot  0.544004 -0.784841 7.49832
LeftToes  -5.82109e-011 8.55049e-011 -1.09726e-011
